<mxfile host="app.diagrams.net" agent="Mozilla/5.0 (Macintosh; Intel Mac OS X 10_15_7) AppleWebKit/537.36 (KHTML, like Gecko) Chrome/136.0.0.0 Safari/537.36" version="27.0.6">
  <diagram name="Pagina-1" id="8iobvgsZVcac3BLeJkiX">
    <mxGraphModel dx="946" dy="644" grid="1" gridSize="10" guides="1" tooltips="1" connect="1" arrows="1" fold="1" page="1" pageScale="1" pageWidth="827" pageHeight="1169" math="0" shadow="0">
      <root>
        <mxCell id="0" />
        <mxCell id="1" parent="0" />
        <mxCell id="Yn2EBbrNF-gnZp4LEwN1-1" style="edgeStyle=orthogonalEdgeStyle;rounded=0;orthogonalLoop=1;jettySize=auto;html=1;exitX=0.5;exitY=1;exitDx=0;exitDy=0;entryX=0.5;entryY=0;entryDx=0;entryDy=0;endArrow=none;startFill=0;" edge="1" parent="1" source="Yn2EBbrNF-gnZp4LEwN1-3" target="Yn2EBbrNF-gnZp4LEwN1-22">
          <mxGeometry relative="1" as="geometry" />
        </mxCell>
        <mxCell id="Yn2EBbrNF-gnZp4LEwN1-2" style="edgeStyle=orthogonalEdgeStyle;rounded=0;orthogonalLoop=1;jettySize=auto;html=1;exitX=1;exitY=0.5;exitDx=0;exitDy=0;entryX=0;entryY=0.5;entryDx=0;entryDy=0;endArrow=none;startFill=0;" edge="1" parent="1" source="Yn2EBbrNF-gnZp4LEwN1-3" target="Yn2EBbrNF-gnZp4LEwN1-13">
          <mxGeometry relative="1" as="geometry" />
        </mxCell>
        <mxCell id="Yn2EBbrNF-gnZp4LEwN1-3" value="" style="ellipse;whiteSpace=wrap;html=1;aspect=fixed;fillColor=#F2FF3D;" vertex="1" parent="1">
          <mxGeometry x="343" y="265" width="14" height="14" as="geometry" />
        </mxCell>
        <mxCell id="Yn2EBbrNF-gnZp4LEwN1-4" value="Id_Encounter&lt;div&gt;&amp;nbsp;+&lt;div&gt;Code_&lt;span style=&quot;text-wrap-mode: wrap; background-color: transparent; color: light-dark(rgb(0, 0, 0), rgb(255, 255, 255));&quot;&gt;Supply&lt;/span&gt;&lt;br&gt;&lt;/div&gt;&lt;/div&gt;" style="text;html=1;align=center;verticalAlign=middle;resizable=0;points=[];autosize=1;strokeColor=none;fillColor=none;" vertex="1" parent="1">
          <mxGeometry x="300" y="190" width="100" height="60" as="geometry" />
        </mxCell>
        <mxCell id="Yn2EBbrNF-gnZp4LEwN1-5" style="edgeStyle=orthogonalEdgeStyle;rounded=0;orthogonalLoop=1;jettySize=auto;html=1;exitX=1;exitY=0.5;exitDx=0;exitDy=0;entryX=0;entryY=0.5;entryDx=0;entryDy=0;endArrow=none;startFill=0;" edge="1" parent="1" source="Yn2EBbrNF-gnZp4LEwN1-6" target="Yn2EBbrNF-gnZp4LEwN1-3">
          <mxGeometry relative="1" as="geometry" />
        </mxCell>
        <mxCell id="Yn2EBbrNF-gnZp4LEwN1-6" value="" style="ellipse;whiteSpace=wrap;html=1;aspect=fixed;fillColor=#FFFFFF;" vertex="1" parent="1">
          <mxGeometry x="253" y="265" width="14" height="14" as="geometry" />
        </mxCell>
        <mxCell id="Yn2EBbrNF-gnZp4LEwN1-7" value="Code_&lt;span style=&quot;color: light-dark(rgb(0, 0, 0), rgb(255, 255, 255)); text-wrap-mode: wrap; background-color: transparent;&quot;&gt;Supply&lt;/span&gt;" style="text;html=1;align=center;verticalAlign=middle;resizable=0;points=[];autosize=1;strokeColor=none;fillColor=none;" vertex="1" parent="1">
          <mxGeometry x="210" y="279" width="100" height="30" as="geometry" />
        </mxCell>
        <mxCell id="Yn2EBbrNF-gnZp4LEwN1-8" style="edgeStyle=orthogonalEdgeStyle;rounded=0;orthogonalLoop=1;jettySize=auto;html=1;entryX=0;entryY=0.5;entryDx=0;entryDy=0;endArrow=none;startFill=0;" edge="1" parent="1" source="Yn2EBbrNF-gnZp4LEwN1-9" target="Yn2EBbrNF-gnZp4LEwN1-6">
          <mxGeometry relative="1" as="geometry" />
        </mxCell>
        <mxCell id="Yn2EBbrNF-gnZp4LEwN1-9" value="" style="ellipse;whiteSpace=wrap;html=1;aspect=fixed;fillColor=#FFFFFF;" vertex="1" parent="1">
          <mxGeometry x="183" y="265" width="14" height="14" as="geometry" />
        </mxCell>
        <mxCell id="Yn2EBbrNF-gnZp4LEwN1-10" value="Description" style="text;html=1;align=center;verticalAlign=middle;resizable=0;points=[];autosize=1;strokeColor=none;fillColor=none;" vertex="1" parent="1">
          <mxGeometry x="150" y="235" width="80" height="30" as="geometry" />
        </mxCell>
        <mxCell id="Yn2EBbrNF-gnZp4LEwN1-11" style="edgeStyle=orthogonalEdgeStyle;rounded=0;orthogonalLoop=1;jettySize=auto;html=1;exitX=1;exitY=0.5;exitDx=0;exitDy=0;entryX=0;entryY=0.5;entryDx=0;entryDy=0;endArrow=none;startFill=0;endFill=1;" edge="1" parent="1" source="Yn2EBbrNF-gnZp4LEwN1-13" target="Yn2EBbrNF-gnZp4LEwN1-15">
          <mxGeometry relative="1" as="geometry" />
        </mxCell>
        <mxCell id="Yn2EBbrNF-gnZp4LEwN1-12" style="edgeStyle=orthogonalEdgeStyle;rounded=0;orthogonalLoop=1;jettySize=auto;html=1;exitX=0.5;exitY=1;exitDx=0;exitDy=0;entryX=0.5;entryY=0;entryDx=0;entryDy=0;curved=1;endArrow=none;startFill=0;" edge="1" parent="1" source="Yn2EBbrNF-gnZp4LEwN1-13" target="Yn2EBbrNF-gnZp4LEwN1-16">
          <mxGeometry relative="1" as="geometry" />
        </mxCell>
        <mxCell id="Yn2EBbrNF-gnZp4LEwN1-13" value="" style="ellipse;whiteSpace=wrap;html=1;aspect=fixed;fillColor=#FFFFFF;" vertex="1" parent="1">
          <mxGeometry x="473" y="265" width="14" height="14" as="geometry" />
        </mxCell>
        <mxCell id="Yn2EBbrNF-gnZp4LEwN1-14" value="Id_Organization" style="text;html=1;align=center;verticalAlign=middle;resizable=0;points=[];autosize=1;strokeColor=none;fillColor=none;" vertex="1" parent="1">
          <mxGeometry x="420" y="233" width="110" height="30" as="geometry" />
        </mxCell>
        <mxCell id="Yn2EBbrNF-gnZp4LEwN1-15" value="" style="ellipse;whiteSpace=wrap;html=1;aspect=fixed;fillColor=#FFFFFF;" vertex="1" parent="1">
          <mxGeometry x="558" y="265" width="14" height="14" as="geometry" />
        </mxCell>
        <mxCell id="Yn2EBbrNF-gnZp4LEwN1-16" value="" style="ellipse;whiteSpace=wrap;html=1;aspect=fixed;fillColor=#FFFFFF;" vertex="1" parent="1">
          <mxGeometry x="473" y="307" width="14" height="14" as="geometry" />
        </mxCell>
        <mxCell id="Yn2EBbrNF-gnZp4LEwN1-17" value="Name" style="text;html=1;align=center;verticalAlign=middle;resizable=0;points=[];autosize=1;strokeColor=none;fillColor=none;" vertex="1" parent="1">
          <mxGeometry x="445" y="321" width="60" height="30" as="geometry" />
        </mxCell>
        <mxCell id="Yn2EBbrNF-gnZp4LEwN1-18" style="edgeStyle=orthogonalEdgeStyle;rounded=0;orthogonalLoop=1;jettySize=auto;html=1;entryX=0.5;entryY=1;entryDx=0;entryDy=0;endArrow=none;startFill=0;" edge="1" parent="1" source="Yn2EBbrNF-gnZp4LEwN1-19" target="Yn2EBbrNF-gnZp4LEwN1-15">
          <mxGeometry relative="1" as="geometry" />
        </mxCell>
        <mxCell id="Yn2EBbrNF-gnZp4LEwN1-19" value="" style="ellipse;whiteSpace=wrap;html=1;aspect=fixed;fillColor=#FFFFFF;" vertex="1" parent="1">
          <mxGeometry x="558" y="307" width="14" height="14" as="geometry" />
        </mxCell>
        <mxCell id="Yn2EBbrNF-gnZp4LEwN1-20" value="Name" style="text;html=1;align=center;verticalAlign=middle;resizable=0;points=[];autosize=1;strokeColor=none;fillColor=none;" vertex="1" parent="1">
          <mxGeometry x="535" y="317" width="60" height="30" as="geometry" />
        </mxCell>
        <mxCell id="Yn2EBbrNF-gnZp4LEwN1-21" value="Id_State" style="text;html=1;align=center;verticalAlign=middle;resizable=0;points=[];autosize=1;strokeColor=none;fillColor=none;" vertex="1" parent="1">
          <mxGeometry x="535" y="233" width="70" height="30" as="geometry" />
        </mxCell>
        <mxCell id="Yn2EBbrNF-gnZp4LEwN1-22" value="" style="ellipse;whiteSpace=wrap;html=1;aspect=fixed;fillColor=#FFFFFF;" vertex="1" parent="1">
          <mxGeometry x="343" y="307" width="16" height="16" as="geometry" />
        </mxCell>
        <mxCell id="Yn2EBbrNF-gnZp4LEwN1-23" value="Date" style="text;html=1;align=center;verticalAlign=middle;resizable=0;points=[];autosize=1;strokeColor=none;fillColor=none;" vertex="1" parent="1">
          <mxGeometry x="325" y="317" width="50" height="30" as="geometry" />
        </mxCell>
      </root>
    </mxGraphModel>
  </diagram>
</mxfile>
